<svg width="2000" height="2000" viewBox="0 0 2000 2000" fill="none" xmlns="http://www.w3.org/2000/svg">
<g id="Event Map Base">
<rect width="2000" height="2000" fill="white"/>
<path id="Full Event Map" fill-rule="evenodd" clip-rule="evenodd" d="M51 459H1187V621H1949V1468H906V1371H625V1468H51V459Z" fill="#D9D9D9"/>
<path id="Plane 3" d="M158.155 894.152L168.4 884.512L168.459 884.452C170.569 882.342 171.755 879.48 171.755 876.496C171.755 873.512 170.569 870.651 168.459 868.541C166.349 866.431 163.488 865.245 160.504 865.245C157.519 865.245 154.658 866.431 152.548 868.541C152.548 868.562 152.509 868.579 152.488 868.6L142.848 878.845L113.668 868.228C113.165 868.045 112.621 868.009 112.098 868.125C111.576 868.241 111.097 868.503 110.719 868.882L102.281 877.319C101.987 877.613 101.762 877.969 101.622 878.361C101.482 878.753 101.431 879.171 101.472 879.584C101.513 879.998 101.645 880.398 101.859 880.755C102.074 881.111 102.364 881.416 102.71 881.647L125.171 896.62L119.961 901.812H112.687C111.943 901.813 111.228 902.109 110.701 902.635L102.264 911.073C101.935 911.401 101.692 911.806 101.558 912.25C101.423 912.695 101.401 913.167 101.493 913.622C101.586 914.078 101.79 914.503 102.086 914.861C102.383 915.218 102.764 915.497 103.195 915.671L116.14 920.85L121.308 933.77L121.329 933.826C121.508 934.259 121.792 934.64 122.155 934.935C122.519 935.23 122.95 935.43 123.41 935.516C123.87 935.603 124.345 935.572 124.791 935.429C125.236 935.285 125.639 935.033 125.962 934.694L134.354 926.299C134.617 926.039 134.826 925.729 134.969 925.389C135.112 925.048 135.186 924.682 135.187 924.312V917.039L140.377 911.85L155.35 934.311C155.58 934.657 155.885 934.948 156.242 935.162C156.598 935.376 156.998 935.508 157.412 935.549C157.826 935.59 158.244 935.539 158.636 935.399C159.027 935.259 159.383 935.034 159.677 934.74L168.115 926.302C168.493 925.924 168.756 925.445 168.871 924.923C168.987 924.4 168.952 923.856 168.769 923.353L158.155 894.152ZM158.13 928.334L143.157 905.877C142.928 905.528 142.624 905.235 142.267 905.018C141.91 904.802 141.509 904.667 141.094 904.625C140.999 904.625 140.907 904.625 140.816 904.625C140.446 904.625 140.08 904.698 139.739 904.84C139.397 904.982 139.087 905.189 138.826 905.451L130.389 913.889C129.861 914.415 129.564 915.13 129.562 915.875V923.149L124.968 927.744L120.925 917.633C120.783 917.282 120.572 916.963 120.305 916.695C120.037 916.428 119.718 916.217 119.367 916.075L109.263 912.032L113.855 907.437H121.125C121.494 907.438 121.86 907.365 122.202 907.224C122.543 907.083 122.853 906.876 123.115 906.615L131.552 898.177C131.847 897.883 132.073 897.527 132.213 897.135C132.353 896.743 132.405 896.325 132.364 895.91C132.323 895.496 132.19 895.096 131.976 894.739C131.761 894.382 131.47 894.077 131.123 893.846L108.666 878.87L113.412 874.127L142.669 884.765C143.184 884.955 143.744 884.989 144.279 884.864C144.813 884.739 145.3 884.46 145.678 884.062L156.555 872.492C157.616 871.463 159.038 870.892 160.516 870.903C161.993 870.914 163.407 871.507 164.452 872.552C165.496 873.597 166.088 875.011 166.098 876.488C166.109 877.966 165.537 879.388 164.508 880.448L152.952 891.322C152.554 891.7 152.275 892.187 152.15 892.721C152.025 893.256 152.059 893.816 152.249 894.331L162.887 923.588L158.13 928.334Z" fill="black"/>
<path id="Plane 2" d="M157.155 784.152L167.4 774.512L167.459 774.452C169.569 772.342 170.755 769.48 170.755 766.496C170.755 763.512 169.569 760.651 167.459 758.541C165.349 756.431 162.488 755.245 159.504 755.245C156.519 755.245 153.658 756.431 151.548 758.541C151.548 758.562 151.509 758.579 151.488 758.6L141.848 768.845L112.668 758.228C112.165 758.045 111.621 758.009 111.098 758.125C110.576 758.241 110.097 758.503 109.719 758.882L101.281 767.319C100.987 767.613 100.762 767.969 100.622 768.361C100.482 768.753 100.431 769.171 100.472 769.584C100.513 769.998 100.645 770.398 100.859 770.755C101.074 771.111 101.364 771.416 101.71 771.647L124.171 786.62L118.961 791.812H111.687C110.943 791.813 110.228 792.109 109.701 792.635L101.264 801.073C100.935 801.401 100.692 801.806 100.558 802.25C100.423 802.695 100.401 803.167 100.493 803.622C100.586 804.078 100.79 804.503 101.086 804.861C101.383 805.218 101.764 805.497 102.195 805.671L115.14 810.85L120.308 823.77L120.329 823.826C120.508 824.259 120.792 824.64 121.155 824.935C121.519 825.23 121.95 825.43 122.41 825.516C122.87 825.603 123.345 825.572 123.791 825.429C124.236 825.285 124.639 825.033 124.962 824.694L133.354 816.299C133.617 816.039 133.826 815.729 133.969 815.389C134.112 815.048 134.186 814.682 134.187 814.312V807.039L139.377 801.85L154.35 824.311C154.58 824.657 154.885 824.948 155.242 825.162C155.598 825.376 155.998 825.508 156.412 825.549C156.826 825.59 157.244 825.539 157.636 825.399C158.027 825.259 158.383 825.034 158.677 824.74L167.115 816.302C167.493 815.924 167.756 815.445 167.871 814.923C167.987 814.4 167.952 813.856 167.769 813.353L157.155 784.152ZM157.13 818.334L142.157 795.877C141.928 795.528 141.624 795.235 141.267 795.018C140.91 794.802 140.509 794.667 140.094 794.625C139.999 794.625 139.907 794.625 139.816 794.625C139.446 794.625 139.08 794.698 138.739 794.84C138.397 794.982 138.087 795.189 137.826 795.451L129.389 803.889C128.861 804.415 128.564 805.13 128.562 805.875V813.149L123.968 817.744L119.925 807.633C119.783 807.282 119.572 806.963 119.305 806.695C119.037 806.428 118.718 806.217 118.367 806.075L108.263 802.032L112.855 797.437H120.125C120.494 797.438 120.86 797.365 121.202 797.224C121.543 797.083 121.853 796.876 122.115 796.615L130.552 788.177C130.847 787.883 131.073 787.527 131.213 787.135C131.353 786.743 131.405 786.325 131.364 785.91C131.323 785.496 131.19 785.096 130.976 784.739C130.761 784.382 130.47 784.077 130.123 783.846L107.666 768.87L112.412 764.127L141.669 774.765C142.184 774.955 142.744 774.989 143.279 774.864C143.813 774.739 144.3 774.46 144.678 774.062L155.555 762.492C156.616 761.463 158.038 760.892 159.516 760.903C160.993 760.914 162.407 761.507 163.452 762.552C164.496 763.597 165.088 765.011 165.098 766.488C165.109 767.966 164.537 769.388 163.508 770.448L151.952 781.322C151.554 781.7 151.275 782.187 151.15 782.721C151.025 783.256 151.059 783.816 151.249 784.331L161.887 813.588L157.13 818.334Z" fill="black"/>
<rect id="Food Truck 1" x="434" y="1359" width="111" height="38" fill="#008000"/>
<rect id="Sponsor Tent 3" x="572" y="1108" width="66" height="38" fill="black"/>
<rect id="Sponsor Tent 4" x="654" y="1108" width="66" height="38" fill="black"/>
<rect id="Sponsor Test 5" x="736" y="1108" width="66" height="38" fill="black"/>
<rect id="Sponsor Test 7" x="868" y="540" width="66" height="38" fill="black"/>
<rect id="Beer Booth 1" x="943" y="724" width="48" height="19" fill="#0088FF"/>
<rect id="Beer Booth 3" x="1166" y="689" width="48" height="19" fill="#0088FF"/>
<rect id="Beer Booth 4" x="1242" y="689" width="48" height="19" fill="#0088FF"/>
<rect id="Beer Booth 5" x="1318" y="689" width="48" height="19" fill="#0088FF"/>
<rect id="Beer Booth 6" x="1394" y="689" width="48" height="19" fill="#0088FF"/>
<rect id="Beer Booth 7" x="1470" y="689" width="48" height="19" fill="#0088FF"/>
<rect id="Beer Booth 8" x="1546" y="689" width="48" height="19" fill="#0088FF"/>
<rect id="Beer Booth 9" x="1622" y="689" width="48" height="19" fill="#0088FF"/>
<rect id="Beer Booth 10" x="1698" y="689" width="48" height="19" fill="#0088FF"/>
<rect id="Beer Booth 11" x="1774" y="689" width="48" height="19" fill="#0088FF"/>
<rect id="Beer Booth 18" x="1868" y="1127" width="48" height="19" transform="rotate(-90 1868 1127)" fill="#0088FF"/>
<rect id="Beer Booth 19" x="1868" y="1194" width="48" height="19" transform="rotate(-90 1868 1194)" fill="#0088FF"/>
<rect id="Beer Booth 13" x="1868" y="823" width="48" height="19" transform="rotate(-90 1868 823)" fill="#0088FF"/>
<rect id="Beer Booth 17" x="1868" y="1064" width="48" height="19" transform="rotate(-90 1868 1064)" fill="#0088FF"/>
<rect id="Beer Booth 16" x="1868" y="1006" width="48" height="19" transform="rotate(-90 1868 1006)" fill="#0088FF"/>
<rect id="Beer Booth 15" x="1868" y="944" width="48" height="19" transform="rotate(-90 1868 944)" fill="#0088FF"/>
<rect id="Beer Booth 14" x="1868" y="882" width="48" height="19" transform="rotate(-90 1868 882)" fill="#0088FF"/>
<rect id="Beer Booth 12" x="1877.94" y="755.376" width="48" height="19" transform="rotate(-135 1877.94 755.376)" fill="#0088FF"/>
<rect id="Beer Booth 29" x="1128" y="1207" width="48" height="19" fill="#0088FF"/>
<rect id="Beer Booth 28" x="1204" y="1207" width="48" height="19" fill="#0088FF"/>
<rect id="Beer Booth 27" x="1280" y="1207" width="48" height="19" fill="#0088FF"/>
<rect id="Beer Booth 26" x="1356" y="1207" width="48" height="19" fill="#0088FF"/>
<rect id="Beer Booth 25" x="1432" y="1207" width="48" height="19" fill="#0088FF"/>
<rect id="Beer Booth 24" x="1508" y="1207" width="48" height="19" fill="#0088FF"/>
<rect id="Beer Booth 23" x="1584" y="1207" width="48" height="19" fill="#0088FF"/>
<rect id="Beer Booth 22" x="1660" y="1207" width="48" height="19" fill="#0088FF"/>
<rect id="Beer Booth 21" x="1736" y="1207" width="48" height="19" fill="#0088FF"/>
<rect id="Beer Booth 20" x="1812" y="1207" width="48" height="19" fill="#0088FF"/>
<rect id="Beer Booth 2" x="1013" y="724" width="48" height="19" fill="#0088FF"/>
<rect id="Sponsor Test 8" x="769" y="540" width="66" height="38" fill="black"/>
<rect id="Sponsor Tent 6" x="818" y="1108" width="66" height="38" fill="black"/>
<rect id="DJ Booth" x="865" y="936" width="91" height="38" transform="rotate(-90 865 936)" fill="#CB30E0"/>
<path id="VIP Tent" d="M944 689V613H1061V689H944Z" fill="#FF8D28"/>
<path id="Photo Booth" d="M1073 944V868H1190V944H1073Z" fill="#986977"/>
<path id="Pretzel Booth" d="M1601 1102V1026H1718V1102H1601Z" fill="#00C0E8"/>
<path id="Hops in the Hangar Information Tent" d="M1099 1137V1094H1140V1137H1099Z" fill="#00C8B3"/>
<path id="Start Skydiving Tent" d="M1099 1194V1151H1140V1194H1099Z" fill="#4B6966"/>
<rect id="Pilot Tent" x="792" y="535" width="76" height="117" transform="rotate(-90 792 535)" fill="#FFCC00"/>
<rect id="Sponsor Tent 2" x="490" y="1108" width="66" height="38" fill="black"/>
<rect id="Food Truck 2" x="274" y="1359" width="111" height="38" fill="#008000"/>
<rect id="Food Truck 7" x="705.489" y="605.359" width="111" height="38" transform="rotate(-135 705.489 605.359)" fill="#008000"/>
<rect id="Food Truck 8" x="798.489" y="699.359" width="111" height="38" transform="rotate(-135 798.489 699.359)" fill="#008000"/>
<rect id="Food Truck 4" x="967" y="1359" width="111" height="38" fill="#008000"/>
<rect id="Food Truck 5" x="1110" y="1359" width="111" height="38" fill="#008000"/>
<rect id="Food Truck 6" x="1270" y="1397" width="111" height="38" transform="rotate(-90 1270 1397)" fill="#008000"/>
<rect id="Portapotty" x="1375" y="1397" width="111" height="38" transform="rotate(-90 1375 1397)" fill="#000080"/>
<rect id="Sponsor Tent 1" x="408" y="1108" width="66" height="38" fill="black"/>
<rect id="Food Truck 3" x="161.273" y="1240.24" width="111" height="38" transform="rotate(53 161.273 1240.24)" fill="#008000"/>
<path id="Plane 4" d="M158.155 995.152L168.4 985.512L168.459 985.452C170.569 983.342 171.755 980.48 171.755 977.496C171.755 974.512 170.569 971.651 168.459 969.541C166.349 967.431 163.488 966.245 160.504 966.245C157.519 966.245 154.658 967.431 152.548 969.541C152.548 969.562 152.509 969.579 152.488 969.6L142.848 979.845L113.668 969.228C113.165 969.045 112.621 969.009 112.098 969.125C111.576 969.241 111.097 969.503 110.719 969.882L102.281 978.319C101.987 978.613 101.762 978.969 101.622 979.361C101.482 979.753 101.431 980.171 101.472 980.584C101.513 980.998 101.645 981.398 101.859 981.755C102.074 982.111 102.364 982.416 102.71 982.647L125.171 997.62L119.961 1002.81H112.687C111.943 1002.81 111.228 1003.11 110.701 1003.64L102.264 1012.07C101.935 1012.4 101.692 1012.81 101.558 1013.25C101.423 1013.7 101.401 1014.17 101.493 1014.62C101.586 1015.08 101.79 1015.5 102.086 1015.86C102.383 1016.22 102.764 1016.5 103.195 1016.67L116.14 1021.85L121.308 1034.77L121.329 1034.83C121.508 1035.26 121.792 1035.64 122.155 1035.94C122.519 1036.23 122.95 1036.43 123.41 1036.52C123.87 1036.6 124.345 1036.57 124.791 1036.43C125.236 1036.29 125.639 1036.03 125.962 1035.69L134.354 1027.3C134.617 1027.04 134.826 1026.73 134.969 1026.39C135.112 1026.05 135.186 1025.68 135.187 1025.31V1018.04L140.377 1012.85L155.35 1035.31C155.58 1035.66 155.885 1035.95 156.242 1036.16C156.598 1036.38 156.998 1036.51 157.412 1036.55C157.826 1036.59 158.244 1036.54 158.636 1036.4C159.027 1036.26 159.383 1036.03 159.677 1035.74L168.115 1027.3C168.493 1026.92 168.756 1026.45 168.871 1025.92C168.987 1025.4 168.952 1024.86 168.769 1024.35L158.155 995.152ZM158.13 1029.33L143.157 1006.88C142.928 1006.53 142.624 1006.23 142.267 1006.02C141.91 1005.8 141.509 1005.67 141.094 1005.62C140.999 1005.62 140.907 1005.62 140.816 1005.62C140.446 1005.63 140.08 1005.7 139.739 1005.84C139.397 1005.98 139.087 1006.19 138.826 1006.45L130.389 1014.89C129.861 1015.42 129.564 1016.13 129.562 1016.87V1024.15L124.968 1028.74L120.925 1018.63C120.783 1018.28 120.572 1017.96 120.305 1017.7C120.037 1017.43 119.718 1017.22 119.367 1017.08L109.263 1013.03L113.855 1008.44H121.125C121.494 1008.44 121.86 1008.37 122.202 1008.22C122.543 1008.08 122.853 1007.88 123.115 1007.61L131.552 999.177C131.847 998.883 132.073 998.527 132.213 998.135C132.353 997.743 132.405 997.325 132.364 996.91C132.323 996.496 132.19 996.096 131.976 995.739C131.761 995.382 131.47 995.077 131.123 994.846L108.666 979.87L113.412 975.127L142.669 985.765C143.184 985.955 143.744 985.989 144.279 985.864C144.813 985.739 145.3 985.46 145.678 985.062L156.555 973.492C157.616 972.463 159.038 971.892 160.516 971.903C161.993 971.914 163.407 972.507 164.452 973.552C165.496 974.597 166.088 976.011 166.098 977.488C166.109 978.966 165.537 980.388 164.508 981.448L152.952 992.322C152.554 992.7 152.275 993.187 152.15 993.721C152.025 994.256 152.059 994.816 152.249 995.331L162.887 1024.59L158.13 1029.33Z" fill="black"/>
<g id="Plane 1">
<path id="Plane 1_2" d="M158.155 687.152L168.4 677.512L168.459 677.452C170.569 675.342 171.755 672.48 171.755 669.496C171.755 666.512 170.569 663.651 168.459 661.541C166.349 659.431 163.488 658.245 160.504 658.245C157.519 658.245 154.658 659.431 152.548 661.541C152.548 661.562 152.509 661.579 152.488 661.6L142.848 671.845L113.668 661.228C113.165 661.045 112.621 661.009 112.098 661.125C111.576 661.241 111.097 661.503 110.719 661.882L102.281 670.319C101.987 670.613 101.762 670.969 101.622 671.361C101.482 671.753 101.431 672.171 101.472 672.584C101.513 672.998 101.645 673.398 101.859 673.755C102.074 674.111 102.364 674.416 102.71 674.647L125.171 689.62L119.961 694.812H112.687C111.943 694.813 111.228 695.109 110.701 695.635L102.264 704.073C101.935 704.401 101.692 704.806 101.558 705.25C101.423 705.695 101.401 706.167 101.493 706.622C101.586 707.078 101.79 707.503 102.086 707.861C102.383 708.218 102.764 708.497 103.195 708.671L116.14 713.85L121.308 726.77L121.329 726.826C121.508 727.259 121.792 727.64 122.155 727.935C122.519 728.23 122.95 728.43 123.41 728.516C123.87 728.603 124.345 728.572 124.791 728.429C125.236 728.285 125.639 728.033 125.962 727.694L134.354 719.299C134.617 719.039 134.826 718.729 134.969 718.389C135.112 718.048 135.186 717.682 135.187 717.312V710.039L140.377 704.85L155.35 727.311C155.58 727.657 155.885 727.948 156.242 728.162C156.598 728.376 156.998 728.508 157.412 728.549C157.826 728.59 158.244 728.539 158.636 728.399C159.027 728.259 159.383 728.034 159.677 727.74L168.115 719.302C168.493 718.924 168.756 718.445 168.871 717.923C168.987 717.4 168.952 716.856 168.769 716.353L158.155 687.152ZM158.13 721.334L143.157 698.877C142.928 698.528 142.624 698.235 142.267 698.018C141.91 697.802 141.509 697.667 141.094 697.625C140.999 697.625 140.907 697.625 140.816 697.625C140.446 697.625 140.08 697.698 139.739 697.84C139.397 697.982 139.087 698.189 138.826 698.451L130.389 706.889C129.861 707.415 129.564 708.13 129.562 708.875V716.149L124.968 720.744L120.925 710.633C120.783 710.282 120.572 709.963 120.305 709.695C120.037 709.428 119.718 709.217 119.367 709.075L109.263 705.032L113.855 700.437H121.125C121.494 700.438 121.86 700.365 122.202 700.224C122.543 700.083 122.853 699.876 123.115 699.615L131.552 691.177C131.847 690.883 132.073 690.527 132.213 690.135C132.353 689.743 132.405 689.325 132.364 688.91C132.323 688.496 132.19 688.096 131.976 687.739C131.761 687.382 131.47 687.077 131.123 686.846L108.666 671.87L113.412 667.127L142.669 677.765C143.184 677.955 143.744 677.989 144.279 677.864C144.813 677.739 145.3 677.46 145.678 677.062L156.555 665.492C157.616 664.463 159.038 663.892 160.516 663.903C161.993 663.914 163.407 664.507 164.452 665.552C165.496 666.597 166.088 668.011 166.098 669.488C166.109 670.966 165.537 672.388 164.508 673.448L152.952 684.322C152.554 684.7 152.275 685.187 152.15 685.721C152.025 686.256 152.059 686.816 152.249 687.331L162.887 716.588L158.13 721.334Z" fill="black"/>
</g>
<path id="Tables, Water Stations, Cornhole" d="M523 699L556.902 790.555H666.61L577.854 847.14L611.756 938.695L523 882.111L434.244 938.695L468.146 847.14L379.39 790.555H489.098L523 699Z" fill="#FFC0CB"/>
<path id="Airplane Play" d="M1448 832L1539.8 991.75H1356.2L1448 832Z" fill="#BF6A02"/>
</g>
</svg>
